<svg xmlns="http://www.w3.org/2000/svg" viewBox="0 0 600 600">
  
  <g stroke="#ffffff" fill="none">

    
    <circle cx="300" cy="300" r="285" stroke-width="0.7"></circle>
    <circle cx="300" cy="300" r="176" stroke-width="0.55"></circle>
    <circle cx="300" cy="300" r="109" stroke-width="0.45"></circle>
    <circle cx="300" cy="300" r="67" stroke-width="0.35"></circle>
    <circle cx="300" cy="300" r="41" stroke-width="0.3"></circle>

    
    <rect x="87" y="87" width="426" height="426" stroke-width="0.55"></rect>
    <line x1="87" y1="87" x2="513" y2="513" stroke-width="0.35"></line>
    <line x1="513" y1="87" x2="87" y2="513" stroke-width="0.35"></line>

    
    <line x1="5" y1="300" x2="595" y2="300" stroke-width="0.6"></line>
    <line x1="300" y1="5" x2="300" y2="595" stroke-width="0.6"></line>

    
    <line x1="124" y1="295" x2="124" y2="305" stroke-width="0.6"></line>
    <line x1="176" y1="295" x2="176" y2="305" stroke-width="0.6"></line>
    <line x1="424" y1="295" x2="424" y2="305" stroke-width="0.6"></line>
    <line x1="476" y1="295" x2="476" y2="305" stroke-width="0.6"></line>

    
    <line x1="295" y1="124" x2="305" y2="124" stroke-width="0.6"></line>
    <line x1="295" y1="176" x2="305" y2="176" stroke-width="0.6"></line>
    <line x1="295" y1="424" x2="305" y2="424" stroke-width="0.6"></line>
    <line x1="295" y1="476" x2="305" y2="476" stroke-width="0.6"></line>

    
    <circle cx="300" cy="300" r="4" stroke-width="1.2"></circle>
    <line x1="290" y1="300" x2="310" y2="300" stroke-width="1.2"></line>
    <line x1="300" y1="290" x2="300" y2="310" stroke-width="1.2"></line>

    
    
    <line x1="10" y1="10" x2="40" y2="10" stroke-width="1"></line>
    <line x1="10" y1="10" x2="10" y2="40" stroke-width="1"></line>
    
    <line x1="590" y1="10" x2="560" y2="10" stroke-width="1"></line>
    <line x1="590" y1="10" x2="590" y2="40" stroke-width="1"></line>
    
    <line x1="10" y1="590" x2="40" y2="590" stroke-width="1"></line>
    <line x1="10" y1="590" x2="10" y2="560" stroke-width="1"></line>
    
    <line x1="590" y1="590" x2="560" y2="590" stroke-width="1"></line>
    <line x1="590" y1="590" x2="590" y2="560" stroke-width="1"></line>

  </g>
</svg>