<svg xmlns="http://www.w3.org/2000/svg" viewBox="0 0 600 600">
  
  <g stroke="#ffffff" fill="none">

    
    <circle cx="300" cy="300" r="240" stroke-width="0.65"></circle>
    <circle cx="300" cy="300" r="230" stroke-width="0.4"></circle>

    
    <g stroke-width="0.5">
      <line x1="300" y1="60" x2="300" y2="80"></line>
      <line x1="362" y1="76" x2="357" y2="95"></line>
      <line x1="420" y1="120" x2="405" y2="135"></line>
      <line x1="464" y1="178" x2="445" y2="183"></line>
      <line x1="480" y1="240" x2="460" y2="237"></line>
      <line x1="480" y1="300" x2="460" y2="300"></line>
      <line x1="480" y1="360" x2="460" y2="363"></line>
      <line x1="464" y1="422" x2="445" y2="417"></line>
      <line x1="420" y1="480" x2="405" y2="465"></line>
      <line x1="362" y1="524" x2="357" y2="505"></line>
      <line x1="300" y1="540" x2="300" y2="520"></line>
      <line x1="238" y1="524" x2="243" y2="505"></line>
      <line x1="180" y1="480" x2="195" y2="465"></line>
      <line x1="136" y1="422" x2="155" y2="417"></line>
      <line x1="120" y1="360" x2="140" y2="363"></line>
      <line x1="120" y1="300" x2="140" y2="300"></line>
      <line x1="120" y1="240" x2="140" y2="237"></line>
      <line x1="136" y1="178" x2="155" y2="183"></line>
      <line x1="180" y1="120" x2="195" y2="135"></line>
      <line x1="238" y1="76" x2="243" y2="95"></line>
    </g>

    
    <circle cx="300" cy="300" r="150" stroke-width="0.5"></circle>
    <circle cx="300" cy="300" r="75" stroke-width="0.45"></circle>
    <circle cx="300" cy="300" r="30" stroke-width="0.4"></circle>

    
    <g stroke-width="0.5">
      <line x1="300" y1="150" x2="300" y2="450"></line>
      <line x1="170" y1="225" x2="430" y2="375"></line>
      <line x1="170" y1="375" x2="430" y2="225"></line>
    </g>

    
    <g stroke-width="0.25">
      <line x1="296" y1="150" x2="296" y2="450"></line>
      <line x1="304" y1="150" x2="304" y2="450"></line>
    </g>

    
    <path d="M 450 300 A 150 150 0 0 0 375 170" stroke-width="0.4" stroke-dasharray="2 2"></path>

    
    <line x1="300" y1="300" x2="540" y2="180" stroke-width="0.3"></line>
    <line x1="300" y1="300" x2="540" y2="420" stroke-width="0.3"></line>

    
    <line x1="20" y1="300" x2="60" y2="300" stroke-width="0.5"></line>
    <line x1="540" y1="300" x2="580" y2="300" stroke-width="0.5"></line>
    <line x1="300" y1="20" x2="300" y2="60" stroke-width="0.5"></line>
    <line x1="300" y1="540" x2="300" y2="580" stroke-width="0.5"></line>

    
    <line x1="25" y1="295" x2="25" y2="305" stroke-width="0.4"></line>
    <line x1="575" y1="295" x2="575" y2="305" stroke-width="0.4"></line>
    <line x1="295" y1="25" x2="305" y2="25" stroke-width="0.4"></line>
    <line x1="295" y1="575" x2="305" y2="575" stroke-width="0.4"></line>

    
    <circle cx="300" cy="300" r="5" stroke-width="1.2"></circle>
    <line x1="290" y1="300" x2="310" y2="300" stroke-width="0.8"></line>
    <line x1="300" y1="290" x2="300" y2="310" stroke-width="0.8"></line>

    
    <line x1="10" y1="10" x2="40" y2="10" stroke-width="1"></line>
    <line x1="10" y1="10" x2="10" y2="40" stroke-width="1"></line>
    <line x1="590" y1="10" x2="560" y2="10" stroke-width="1"></line>
    <line x1="590" y1="10" x2="590" y2="40" stroke-width="1"></line>
    <line x1="10" y1="590" x2="40" y2="590" stroke-width="1"></line>
    <line x1="10" y1="590" x2="10" y2="560" stroke-width="1"></line>
    <line x1="590" y1="590" x2="560" y2="590" stroke-width="1"></line>
    <line x1="590" y1="590" x2="590" y2="560" stroke-width="1"></line>

  </g>
</svg>