<svg xmlns="http://www.w3.org/2000/svg" viewBox="0 0 600 600">
  
  <g stroke="#ffffff" fill="none">

    
    <circle cx="300" cy="300" r="275" stroke-width="0.55"></circle>
    <circle cx="300" cy="300" r="215" stroke-width="0.45"></circle>
    <circle cx="300" cy="300" r="155" stroke-width="0.4"></circle>
    <circle cx="300" cy="300" r="95" stroke-width="0.35"></circle>
    <circle cx="300" cy="300" r="50" stroke-width="0.3"></circle>

    
    <ellipse cx="300" cy="300" rx="275" ry="95" stroke-width="0.4"></ellipse>
    <ellipse cx="300" cy="300" rx="215" ry="75" stroke-width="0.35"></ellipse>
    <ellipse cx="300" cy="300" rx="155" ry="55" stroke-width="0.3"></ellipse>

    
    <g transform="rotate(30 300 300)">
      <ellipse cx="300" cy="300" rx="275" ry="85" stroke-width="0.35"></ellipse>
    </g>

    
    <line x1="300" y1="25" x2="300" y2="575" stroke-width="0.4"></line>
    <line x1="25" y1="300" x2="575" y2="300" stroke-width="0.4"></line>
    <line x1="105" y1="105" x2="495" y2="495" stroke-width="0.3"></line>
    <line x1="495" y1="105" x2="105" y2="495" stroke-width="0.3"></line>

    
    
    <circle cx="575" cy="300" r="3" stroke-width="0.8"></circle>
    <circle cx="300" cy="25" r="3" stroke-width="0.8"></circle>
    
    <circle cx="515" cy="300" r="2.5" stroke-width="0.7"></circle>
    <circle cx="148" cy="148" r="2.5" stroke-width="0.7"></circle>
    
    <circle cx="300" cy="145" r="2" stroke-width="0.6"></circle>
    <circle cx="455" cy="300" r="2" stroke-width="0.6"></circle>
    
    <circle cx="205" cy="300" r="1.8" stroke-width="0.55"></circle>
    <circle cx="300" cy="395" r="1.8" stroke-width="0.55"></circle>

    
    <path d="M 155 155 A 205 205 0 0 1 445 155" stroke-width="0.3" stroke-dasharray="3 3"></path>

    
    <circle cx="300" cy="300" r="6" stroke-width="1"></circle>
    <circle cx="300" cy="300" r="12" stroke-width="0.5"></circle>

    
    <line x1="10" y1="10" x2="40" y2="10" stroke-width="1"></line>
    <line x1="10" y1="10" x2="10" y2="40" stroke-width="1"></line>
    <line x1="590" y1="10" x2="560" y2="10" stroke-width="1"></line>
    <line x1="590" y1="10" x2="590" y2="40" stroke-width="1"></line>
    <line x1="10" y1="590" x2="40" y2="590" stroke-width="1"></line>
    <line x1="10" y1="590" x2="10" y2="560" stroke-width="1"></line>
    <line x1="590" y1="590" x2="560" y2="590" stroke-width="1"></line>
    <line x1="590" y1="590" x2="590" y2="560" stroke-width="1"></line>

  </g>
</svg>