<svg xmlns="http://www.w3.org/2000/svg" viewBox="0 0 600 600">
  <!--
    GitFoundry Vitruvian Geometric — Continuous Orbital Motion
    Concentric circles stay still (rotation invisible on a circle), but the
    inscribed square + diagonals + tick layers rotate at different speeds.
    Comet arcs sweep around. Whole composition breathes gently.
  -->
  <style>
    .stage { transform-origin: center; transform-box: view-box; animation: breathe 7s ease-in-out infinite; }
    .spin  { transform-origin: center; transform-box: view-box; animation-timing-function: linear; animation-iteration-count: infinite; will-change: transform; }
    .s1 { animation-name: spin;     animation-duration: 18s; }
    .s2 { animation-name: spin-rev; animation-duration: 26s; }
    .s3 { animation-name: spin;     animation-duration: 12s; }
    .s4 { animation-name: spin-rev; animation-duration: 9s;  }
    .s5 { animation-name: spin;     animation-duration: 40s; }

    @keyframes spin     { to { transform: rotate(360deg); } }
    @keyframes spin-rev { to { transform: rotate(-360deg); } }
    @keyframes breathe {
      0%, 100% { transform: scale(1); }
      50%      { transform: scale(1.008); }
    }

    @media (prefers-reduced-motion: reduce) {
      .stage, .spin { animation: none; }
    }
  </style>

  <defs>
    <linearGradient id="comet" x1="0" y1="0" x2="1" y2="0">
      <stop offset="0%"   stop-color="#f4efe5" stop-opacity="0"/>
      <stop offset="60%"  stop-color="#f4efe5" stop-opacity="0.05"/>
      <stop offset="92%"  stop-color="#f4efe5" stop-opacity="0.85"/>
      <stop offset="100%" stop-color="#f4efe5" stop-opacity="1"/>
    </linearGradient>
  </defs>

  <g class="stage">
    <g stroke="#f4efe5" fill="none">

      <!-- Static concentric circles (rotation is invisible on a circle) -->
      <circle cx="300" cy="300" r="285" stroke-width="0.7"/>
      <circle cx="300" cy="300" r="176" stroke-width="0.55"/>
      <circle cx="300" cy="300" r="109" stroke-width="0.45"/>
      <circle cx="300" cy="300" r="67"  stroke-width="0.35"/>
      <circle cx="300" cy="300" r="41"  stroke-width="0.3"/>

      <!-- Inscribed square + diagonals — slow rotation -->
      <g class="spin s5">
        <rect x="87" y="87" width="426" height="426" stroke-width="0.55"/>
        <line x1="87"  y1="87"  x2="513" y2="513" stroke-width="0.35"/>
        <line x1="513" y1="87"  x2="87"  y2="513" stroke-width="0.35"/>
      </g>

      <!-- Tick ring around r=176 — counter-rotating -->
      <g class="spin s2">
        <line x1="124" y1="295" x2="124" y2="305" stroke-width="0.6"/>
        <line x1="176" y1="295" x2="176" y2="305" stroke-width="0.6"/>
        <line x1="424" y1="295" x2="424" y2="305" stroke-width="0.6"/>
        <line x1="476" y1="295" x2="476" y2="305" stroke-width="0.6"/>
        <line x1="295" y1="124" x2="305" y2="124" stroke-width="0.6"/>
        <line x1="295" y1="176" x2="305" y2="176" stroke-width="0.6"/>
        <line x1="295" y1="424" x2="305" y2="424" stroke-width="0.6"/>
        <line x1="295" y1="476" x2="305" y2="476" stroke-width="0.6"/>
      </g>

      <!-- Principal axes — rotate slowly -->
      <g class="spin s1" opacity="0.7">
        <line x1="5"   y1="300" x2="595" y2="300" stroke-width="0.6"/>
        <line x1="300" y1="5"   x2="300" y2="595" stroke-width="0.6"/>
      </g>

      <!-- Comet sweep on outer circle -->
      <g class="spin s3">
        <circle cx="300" cy="300" r="285" stroke="url(#comet)" stroke-width="2" stroke-linecap="round"
                pathLength="1000" stroke-dasharray="320 680"/>
        <circle cx="585" cy="300" r="2.4" fill="#f4efe5"/>
      </g>

      <!-- Faster inner comet on r=176 -->
      <g class="spin s4">
        <circle cx="300" cy="300" r="176" stroke="#f4efe5" stroke-width="0.9"
                pathLength="1000" stroke-dasharray="50 950" stroke-linecap="round" opacity="0.7"/>
        <circle cx="476" cy="300" r="1.6" fill="#f4efe5"/>
      </g>

      <!-- Centre crosshair — static, sharp -->
      <circle cx="300" cy="300" r="4" stroke-width="1.2"/>
      <line x1="290" y1="300" x2="310" y2="300" stroke-width="1.2"/>
      <line x1="300" y1="290" x2="300" y2="310" stroke-width="1.2"/>

      <!-- Corner registration marks — static frame of reference -->
      <g stroke-width="1">
        <line x1="10"  y1="10"  x2="40"  y2="10"/>
        <line x1="10"  y1="10"  x2="10"  y2="40"/>
        <line x1="590" y1="10"  x2="560" y2="10"/>
        <line x1="590" y1="10"  x2="590" y2="40"/>
        <line x1="10"  y1="590" x2="40"  y2="590"/>
        <line x1="10"  y1="590" x2="10"  y2="560"/>
        <line x1="590" y1="590" x2="560" y2="590"/>
        <line x1="590" y1="590" x2="590" y2="560"/>
      </g>

    </g>
  </g>
</svg>
